<svg width="250" height="202" viewBox="0 0 250 202" fill="none" xmlns="http://www.w3.org/2000/svg">
<g clip-path="url(#clip0)">
<path d="M142.42 178.319C140.692 175.899 138.352 174.128 135.41 173.465C132.844 172.887 130.206 172.985 127.598 173.005L94.6244 173.259C91.8004 173.281 89.0928 175.728 89.2239 178.66C89.3541 181.567 91.5974 184.084 94.6244 184.06C104.284 183.986 113.943 183.911 123.602 183.837C125.879 183.819 128.157 183.778 130.435 183.786C130.946 183.788 131.455 183.814 131.966 183.82C132.09 183.822 132.179 183.821 132.242 183.818C132.258 183.823 132.272 183.827 132.292 183.833C132.559 183.906 132.832 183.956 133.1 184.026C133.006 184.029 133.274 184.196 133.409 184.252C133.427 184.289 133.467 184.353 133.532 184.453C133.624 184.625 133.896 185.148 133.907 185.132C134.315 186.164 134.652 187.223 134.915 188.302C135.543 190.681 135.681 191.178 135.771 193.41C135.885 196.229 138.173 198.944 141.172 198.81C144 198.683 146.694 196.433 146.572 193.41C146.366 188.315 145.471 182.592 142.42 178.319Z" fill="#E6E6E6"/>
<path d="M96.5627 190.506C95.9433 186.753 95.3358 182.997 94.7045 179.246C94.0638 175.441 92.7554 171.956 89.7941 169.459C89.0029 168.792 88.1825 168.169 87.3586 167.547C87.0688 167.329 86.7796 167.111 86.4933 166.887C86.4762 166.874 86.4653 166.866 86.4505 166.854C86.419 166.827 86.3812 166.795 86.3305 166.752C85.0962 165.707 83.9036 164.616 82.7676 163.457C81.7588 162.427 80.7941 161.353 79.8734 160.235C79.6433 159.956 79.4162 159.674 79.1921 159.39C79.1535 159.341 78.9459 159.072 78.8091 158.897C78.6818 158.722 78.4493 158.406 78.4102 158.35C78.1484 157.98 77.8911 157.606 77.6386 157.229C75.9185 154.652 74.4291 151.928 73.1876 149.089C73.0645 148.808 72.9443 148.525 72.827 148.24C72.7955 148.153 72.7548 148.041 72.7008 147.893C72.4506 147.205 72.2009 146.517 71.9721 145.821C71.4861 144.343 71.0683 142.842 70.7186 141.32C70.5457 140.568 70.3901 139.813 70.2517 139.053C70.1803 138.663 70.1136 138.272 70.0514 137.88C70.0412 137.814 69.9806 137.391 69.9448 137.152C69.9184 136.912 69.8693 136.487 69.8627 136.421C69.8232 136.026 69.7881 135.63 69.7574 135.234C69.6884 134.343 69.6417 133.451 69.6174 132.557C69.5758 130.968 69.6043 129.379 69.7027 127.79C69.7588 126.897 69.8385 126.007 69.9368 125.118C69.9427 125.064 69.9473 125.02 69.9516 124.981C69.9575 124.942 69.9644 124.897 69.9727 124.84C70.0454 124.349 70.1218 123.859 70.2074 123.37C70.5313 121.514 70.9526 119.676 71.4695 117.864C71.7142 117.007 71.9801 116.157 72.267 115.314C72.3949 114.939 72.5268 114.566 72.6629 114.195C72.654 114.219 73.0619 113.177 73.0673 113.142C74.6857 109.318 77.3329 105.832 77.3365 101.488C77.339 98.5474 74.8509 95.7301 71.9361 95.8661C70.4828 95.9208 69.1075 96.5375 68.1001 97.5863C67.0927 98.6352 66.5318 100.034 66.5356 101.488C66.5356 101.554 66.5352 101.611 66.5351 101.665C66.5079 101.757 66.4852 101.833 66.4647 101.901C66.1491 102.587 65.7625 103.239 65.416 103.907C64.4674 105.738 63.6577 107.629 62.8885 109.547C61.6293 112.671 60.6655 115.906 60.0096 119.21C58.5841 126.449 58.4734 133.885 59.683 141.163C61.7769 153.926 68.6821 166.143 78.2819 174.355C79.115 175.068 79.9684 175.757 80.8298 176.431C81.1863 176.711 81.5457 176.985 81.907 177.257C82.0778 177.386 82.7851 177.944 82.474 177.673C83.1431 178.244 83.4247 178.532 83.5966 178.952C83.6215 179.049 83.6555 179.181 83.7015 179.361C83.8226 179.835 83.9376 180.309 84.0332 180.79C84.8688 184.992 85.4496 189.266 86.1476 193.495C86.6273 196.402 90.2053 198.293 92.7909 197.422C95.8003 196.408 97.0767 193.62 96.5627 190.506Z" fill="#E6E6E6"/>
<path d="M142.967 201.407C140.699 201.413 138.521 200.519 136.911 198.921C135.301 197.323 134.391 195.152 134.38 192.884V186.724C127.93 187.446 105.844 187.278 99.5132 186.261V192.638C99.4962 194.904 98.584 197.072 96.9755 198.668C95.367 200.264 93.1927 201.16 90.9264 201.16C88.6601 201.16 86.4857 200.264 84.8772 198.668C83.2687 197.072 82.3566 194.904 82.3396 192.638V180.118C73.7649 175.355 66.6166 168.389 61.6326 159.941C56.6485 151.492 54.0092 141.867 53.9871 132.058C53.9871 115.239 61.6095 99.5488 74.9 89.0114C83.5413 82.1369 94.0405 78.0025 105.049 77.1394C106.543 77.0222 108.047 76.9629 109.517 76.9629C114.699 76.9629 138.079 77.7633 143.945 79.451L157.32 66.1787C157.517 65.981 157.768 65.8462 158.042 65.7917C158.315 65.7372 158.599 65.7654 158.856 65.8727C159.116 65.9759 159.338 66.1551 159.493 66.3868C159.649 66.6185 159.731 66.8919 159.728 67.171V69.2813L162.333 66.7018C162.529 66.5039 162.78 66.3689 163.053 66.3143C163.327 66.2597 163.61 66.2879 163.867 66.3953C164.127 66.4984 164.349 66.6777 164.505 66.9095C164.661 67.1413 164.743 67.4148 164.741 67.6942V91.2756C171.452 97.3263 176.568 104.939 179.634 113.44C182.7 121.94 183.621 131.066 182.317 140.007C181.013 148.949 177.523 157.431 172.157 164.702C166.791 171.972 159.714 177.807 151.553 181.688V192.884C151.542 195.152 150.632 197.323 149.022 198.921C147.413 200.519 145.235 201.413 142.967 201.407ZM135.055 185.958V192.884C135.072 194.971 135.913 196.967 137.395 198.437C138.877 199.907 140.879 200.731 142.967 200.731C145.054 200.731 147.057 199.907 148.538 198.437C150.02 196.967 150.861 194.971 150.878 192.884V181.262L151.071 181.171C160.227 176.826 168.001 170.028 173.527 161.533C180.57 150.692 183.499 137.688 181.784 124.874C180.069 112.061 173.823 100.285 164.178 91.6774L164.066 91.5767V67.6941C164.068 67.549 164.026 67.4067 163.945 67.2862C163.864 67.1658 163.748 67.0731 163.613 67.0206C163.478 66.9631 163.33 66.9475 163.186 66.976C163.043 67.0045 162.911 67.0757 162.809 67.1803L159.053 70.9V67.171C159.056 67.0259 159.014 66.8836 158.933 66.7631C158.852 66.6427 158.736 66.55 158.6 66.4975C158.466 66.4401 158.317 66.4247 158.173 66.4534C158.029 66.4821 157.898 66.5535 157.795 66.6583L144.133 80.2147L143.939 80.1539C138.486 78.4471 114.739 77.6379 109.517 77.6379C108.064 77.6379 106.578 77.6966 105.102 77.8125C94.2273 78.665 83.8557 82.7491 75.3194 89.5403C62.1914 99.949 54.6621 115.446 54.6621 132.058C54.6845 141.78 57.3097 151.319 62.2649 159.684C67.2202 168.048 74.3247 174.933 82.8405 179.624L83.0146 179.721V192.638C83.032 194.725 83.8732 196.72 85.3551 198.19C86.8369 199.659 88.8394 200.484 90.9264 200.484C93.0133 200.484 95.0158 199.659 96.4977 198.19C97.9795 196.72 98.8207 194.725 98.8381 192.638V185.453L99.238 185.528C104.927 186.599 128.884 186.768 134.674 186.008L135.055 185.958Z" fill="#3F3D56"/>
<path d="M97.2079 40.2057L59.8297 51.4387C58.6409 51.7974 57.643 52.6134 57.0554 53.7074C56.4678 54.8014 56.3384 56.0839 56.6958 57.2731C57.0532 58.4624 57.868 59.4612 58.9613 60.05C60.0546 60.6389 61.337 60.7697 62.5267 60.4136L95.2366 50.5814L95.9218 50.3755C96.0605 46.8444 97.0184 43.394 98.72 40.2969C98.5064 40.2008 98.2782 40.1414 98.0449 40.1213C97.7631 40.094 97.4786 40.1227 97.2079 40.2057Z" fill="#27AE60"/>
<path d="M61.8803 62.8084C61.3841 62.8072 60.9008 62.6501 60.4988 62.3593C60.0968 62.0685 59.7963 61.6587 59.6398 61.1879L57.3025 54.1349C57.2048 53.8403 57.1662 53.5294 57.1887 53.22C57.2113 52.9105 57.2945 52.6085 57.4338 52.3312C57.5731 52.0539 57.7656 51.8068 58.0004 51.6039C58.2352 51.401 58.5076 51.2464 58.8022 51.1488L89.2242 41.0668C89.5187 40.9692 89.8296 40.9305 90.139 40.953C90.4485 40.9755 90.7504 41.0588 91.0277 41.198C91.305 41.3372 91.5521 41.5297 91.755 41.7644C91.9579 41.9991 92.1126 42.2715 92.2102 42.5661L94.5475 49.6191C94.742 50.1992 94.703 50.8322 94.4388 51.3841C94.1747 51.9359 93.706 52.3633 93.1322 52.5756C93.1041 52.5861 93.0758 52.5961 93.0471 52.6054L62.6258 62.6871C62.3854 62.7673 62.1337 62.8082 61.8803 62.8084Z" fill="#2F2E41"/>
<path d="M118.854 27.6799C112.713 27.6823 106.815 30.0738 102.407 34.3481C97.9995 38.6225 95.4277 44.4443 95.2365 50.5813C95.2297 50.821 95.2264 51.064 95.2264 51.307C95.2264 55.98 96.6121 60.5481 99.2083 64.4335C101.804 68.319 105.495 71.3473 109.812 73.1356C114.129 74.9239 118.88 75.3918 123.463 74.4801C128.046 73.5685 132.256 71.3182 135.56 68.0139C138.865 64.7096 141.115 60.4996 142.027 55.9164C142.938 51.3332 142.47 46.5826 140.682 42.2653C138.894 37.948 135.865 34.258 131.98 31.6618C128.095 29.0656 123.527 27.6799 118.854 27.6799ZM118.854 74.259C112.768 74.2527 106.934 71.8325 102.631 67.5295C98.328 63.2266 95.9078 57.3923 95.9015 51.307C95.9015 50.9931 95.9082 50.6826 95.9218 50.3754C96.1045 45.8795 97.6049 41.5364 100.236 37.8863C102.867 34.2362 106.514 31.4401 110.721 29.8456C114.929 28.2511 119.513 27.9287 123.902 28.9183C128.292 29.908 132.293 32.1661 135.41 35.4119C138.526 38.6577 140.62 42.7479 141.43 47.174C142.241 51.6001 141.732 56.1668 139.968 60.3062C138.204 64.4456 135.262 67.9751 131.508 70.4559C127.754 72.9366 123.353 74.2592 118.854 74.259Z" fill="#3F3D56"/>
<path d="M138.768 51.307C138.768 56.5886 136.67 61.6539 132.935 65.3885C129.2 69.1232 124.135 71.2213 118.854 71.2213C113.572 71.2213 108.507 69.1232 104.772 65.3885C101.037 61.6539 98.9393 56.5886 98.9393 51.307C98.9393 50.6758 98.9697 50.0548 99.027 49.4405C99.5069 44.3432 101.932 39.6266 105.798 36.2699C109.663 32.9133 114.674 31.1746 119.788 31.4148C124.902 31.655 129.727 33.8557 133.262 37.5599C136.796 41.2641 138.768 46.1872 138.768 51.307Z" fill="#E6E6E6"/>
<path d="M124.784 52.6301C124.301 51.9955 123.666 51.4928 122.938 51.1686C122.039 50.7899 121.111 50.4851 120.163 50.2573V44.8366C121.62 45.0563 122.987 45.6795 124.109 46.6356L125.209 44.2898C124.576 43.726 123.85 43.277 123.062 42.9633C122.19 42.6099 121.274 42.3749 120.339 42.2646V39.5171H117.79V42.2916C116.806 42.4021 115.857 42.7208 115.006 43.2265C114.237 43.6817 113.589 44.3164 113.119 45.0762C112.67 45.8177 112.437 46.67 112.447 47.5368C112.403 48.4761 112.676 49.403 113.22 50.1695C113.722 50.8332 114.384 51.3582 115.144 51.6952C116.057 52.085 117.001 52.3978 117.966 52.6301V57.8247C116.246 57.695 114.607 57.0412 113.271 55.9514L112.171 58.3006C112.918 58.9185 113.768 59.4006 114.682 59.725C115.683 60.0834 116.729 60.3014 117.79 60.3731V63.0969H120.339V60.3224C121.754 60.1678 123.081 59.5591 124.122 58.5875C124.581 58.1479 124.943 57.6179 125.186 57.0311C125.429 56.4443 125.547 55.8134 125.533 55.1785C125.576 54.2691 125.312 53.3718 124.784 52.6301ZM117.966 49.6835C117.345 49.4952 116.768 49.1855 116.268 48.7722C116.07 48.5959 115.913 48.378 115.81 48.1341C115.706 47.8901 115.657 47.6262 115.667 47.3613C115.649 46.7601 115.87 46.1762 116.282 45.7378C116.738 45.2778 117.327 44.9721 117.966 44.8636V49.6835ZM121.763 56.8661C121.332 57.3077 120.772 57.5999 120.163 57.6998V53.2309C120.745 53.387 121.289 53.6591 121.763 54.0309C121.943 54.1843 122.086 54.3763 122.181 54.5925C122.276 54.8087 122.321 55.0436 122.313 55.2797C122.337 55.859 122.14 56.4257 121.763 56.8661Z" fill="#27AE60"/>
<path d="M62.9651 91.3936C62.4433 91.3928 61.9364 91.2198 61.523 90.9015C61.1095 90.5832 60.8126 90.1373 60.6784 89.6331L59.4058 84.8166C59.2465 84.2112 59.3339 83.5673 59.6487 83.0262C59.9635 82.4851 60.48 82.091 61.0851 81.9303L101.231 71.3218C101.837 71.1638 102.481 71.252 103.022 71.5674C103.562 71.8827 103.956 72.3995 104.117 73.0045L105.195 77.0852L104.993 77.1009C94.6971 77.9015 84.8457 81.6345 76.6046 87.8583L76.546 87.8867L63.5645 91.3159C63.3689 91.3675 63.1674 91.3936 62.9651 91.3936Z" fill="#2F2E41"/>
<path d="M56.3161 115.185C51.6068 114.489 47.1028 112.786 43.1112 110.192C41.1337 108.908 39.303 107.41 37.652 105.727C36.0225 104.065 34.4635 102.176 33.6564 99.9622C32.8798 97.9143 32.9198 95.6463 33.7682 93.627C34.605 91.6201 36.2034 90.0269 38.213 89.1967C40.2347 88.3905 42.6773 88.3043 44.6448 89.1872C45.5824 89.5982 46.3937 90.2512 46.9955 91.0794C47.2752 91.4611 47.4823 91.8911 47.6065 92.3478C47.7218 92.7617 47.7322 93.1977 47.637 93.6167C47.5217 94.0349 47.3182 94.4236 47.0403 94.7568C46.7624 95.0899 46.4164 95.3598 46.0257 95.5483C45.1657 95.9895 44.2339 96.2737 43.2741 96.3875C42.3087 96.5192 40.922 96.6389 40.1459 95.864C39.9861 95.7107 39.8605 95.5255 39.7771 95.3203C39.7188 95.1633 39.6988 94.9945 39.7189 94.8282C39.7076 94.9015 39.7657 94.6688 39.7624 94.678C39.7502 94.7124 39.697 94.7963 39.7725 94.6675C39.7962 94.625 39.8224 94.5841 39.8512 94.5449C39.8256 94.5781 39.7692 94.6335 39.8698 94.5385C39.953 94.4475 40.0599 94.3815 40.1784 94.348C40.2252 94.3344 40.2726 94.3235 40.3194 94.3107C40.4385 94.2782 40.2007 94.3125 40.3225 94.3086C40.3695 94.3071 40.4171 94.3083 40.464 94.3062C40.5835 94.3008 40.3461 94.2736 40.4606 94.3024C40.5051 94.3135 40.5491 94.3245 40.5929 94.3383C40.6881 94.3682 40.5255 94.2684 40.59 94.3431C40.6656 94.4307 40.5106 94.258 40.5966 94.3427C40.6393 94.3847 40.6796 94.4292 40.7173 94.4758C40.8663 94.623 41.0673 94.7055 41.2767 94.7055C41.4862 94.7055 41.6872 94.623 41.8362 94.4758C41.9802 94.3251 42.0605 94.1248 42.0605 93.9164C42.0605 93.708 41.9802 93.5076 41.8362 93.3569C41.056 92.3898 39.515 92.6287 38.7258 93.4461C37.7192 94.4886 38.1178 96.1407 39.0969 97.0503C40.2052 98.08 41.775 98.1516 43.2007 97.9789C44.4056 97.8635 45.5798 97.5316 46.6668 96.9994C47.747 96.4686 48.5918 95.556 49.0377 94.4381C49.239 93.8416 49.3113 93.209 49.2498 92.5824C49.1883 91.9558 48.9945 91.3494 48.6811 90.8033C47.4223 88.4368 44.8159 87.2235 42.2395 87.0134C40.9131 86.9095 39.5793 87.0697 38.3152 87.4847C37.0511 87.8996 35.8818 88.5612 34.875 89.431C32.9346 91.178 31.7397 93.6038 31.5375 96.207C31.3126 98.9059 32.3597 101.527 33.8864 103.705C35.4847 105.918 37.3919 107.89 39.55 109.562C43.7689 112.93 48.7177 115.264 54.0003 116.377C54.6286 116.507 55.2604 116.618 55.8955 116.711C56.0975 116.759 56.3107 116.73 56.4915 116.627C56.6723 116.524 56.8072 116.357 56.8687 116.158C56.9229 115.956 56.8954 115.74 56.792 115.558C56.6886 115.376 56.5176 115.242 56.3161 115.185L56.3161 115.185Z" fill="#3F3D56"/>
<path d="M131.715 80.7986C124.815 80.7012 117.937 80.8763 111.081 81.3239C108.738 81.4769 106.71 82.3052 106.71 83.6974C106.71 84.8614 108.721 86.225 111.081 86.0709C117.934 85.6234 124.812 85.4483 131.715 85.5456C137.343 85.625 137.34 80.8779 131.715 80.7986Z" fill="#CCCCCC"/>
<path d="M121.517 85.3105C120.772 85.3105 103.255 85.2826 103.255 82.863C103.255 80.4436 120.772 80.4158 121.517 80.4158C122.263 80.4158 139.78 80.4436 139.78 82.863C139.78 85.2826 122.263 85.3105 121.517 85.3105ZM103.94 82.863C104.419 83.5966 110.858 84.6354 121.517 84.6354C132.177 84.6354 138.615 83.5966 139.095 82.863C138.615 82.1296 132.177 81.0908 121.517 81.0908C110.858 81.0908 104.419 82.1296 103.94 82.863V82.863Z" fill="#3F3D56"/>
<path d="M177.093 148.918C180.971 148.81 185.796 148.676 189.514 145.96C190.621 145.118 191.531 144.044 192.179 142.814C192.828 141.583 193.199 140.226 193.268 138.837C193.344 136.692 192.569 134.82 191.086 133.567C189.144 131.926 186.308 131.541 183.253 132.439L186.419 109.302L184.094 108.983L180.372 136.184L182.313 135.293C184.563 134.261 187.652 133.736 189.571 135.358C190.043 135.782 190.41 136.309 190.644 136.898C190.879 137.487 190.974 138.122 190.924 138.754C190.867 139.788 190.588 140.798 190.106 141.714C189.624 142.631 188.95 143.432 188.131 144.065C185.237 146.179 181.39 146.451 177.028 146.573L177.093 148.918Z" fill="#3F3D56"/>
<path d="M170.667 111.297H158.032V113.643H170.667V111.297Z" fill="#3F3D56"/>
<path d="M68.6823 102.183C68.1199 102.181 67.5765 101.979 67.1495 101.613C66.7225 101.247 66.4398 100.741 66.3519 100.186L65.5808 95.264C65.4844 94.645 65.6376 94.0131 66.0066 93.5069C66.3757 93.0007 66.9305 92.6616 67.5493 92.5639L108.57 86.1365C109.189 86.0402 109.821 86.1934 110.327 86.5624C110.833 86.9315 111.172 87.4862 111.27 88.105L112.041 93.0269C112.137 93.6459 111.984 94.2778 111.615 94.784C111.246 95.2902 110.691 95.6293 110.072 95.7269L69.0519 102.154C68.9296 102.173 68.806 102.183 68.6823 102.183Z" fill="#2F2E41"/>
<path d="M51.706 44.505C61.213 44.505 68.92 36.798 68.92 27.2909C68.92 17.7839 61.213 10.0769 51.706 10.0769C42.1989 10.0769 34.4919 17.7839 34.4919 27.2909C34.4919 36.798 42.1989 44.505 51.706 44.505Z" fill="#27AE60"/>
<path d="M61.4523 31.745C62.0024 31.5526 62.505 31.2446 62.9262 30.8417C63.2049 30.5545 63.4174 30.2098 63.5489 29.8319C63.6803 29.4539 63.7276 29.0517 63.6873 28.6535C63.6639 28.3698 63.5751 28.0952 63.4281 27.8514C63.281 27.6076 63.0795 27.4011 62.8394 27.248C62.2164 26.8649 61.3932 26.8794 60.5621 27.2647L60.4661 20.5452L59.7912 20.5548L59.9039 28.4543L60.4178 28.1172C61.0136 27.7271 61.8697 27.4442 62.4857 27.8231C62.638 27.9234 62.7652 28.0575 62.8572 28.2149C62.9493 28.3723 63.0038 28.5489 63.0166 28.7309C63.045 29.0275 63.0091 29.3268 62.9115 29.6083C62.8139 29.8898 62.6567 30.147 62.4508 30.3624C61.7191 31.0884 60.6359 31.3317 59.3998 31.5542L59.5194 32.2185C60.1765 32.1187 60.8234 31.9603 61.4523 31.745Z" fill="#2F2E41"/>
<path d="M67.4171 20.0733L63.8224 20.6177L63.9235 21.285L67.5182 20.7406L67.4171 20.0733Z" fill="#2F2E41"/>
<path d="M56.0705 21.7915L52.4757 22.3359L52.5768 23.0033L56.1715 22.4589L56.0705 21.7915Z" fill="#2F2E41"/>
<path d="M63.0818 101.882C62.4627 101.881 61.8587 101.691 61.3501 101.338C60.8416 100.985 60.4526 100.485 60.2349 99.9057L48.3663 68.1209C46.9157 64.2227 47.0706 59.9082 48.797 56.1241C50.5235 52.3399 53.6806 49.3952 57.5755 47.9358L67.2261 44.3323C67.5992 44.192 67.9965 44.1269 68.3949 44.1407C68.7933 44.1546 69.1851 44.2471 69.5476 44.4129C69.9093 44.5745 70.2351 44.8065 70.5061 45.0955C70.777 45.3844 70.9877 45.7245 71.1257 46.0958L93.1112 87.6065C93.254 87.9808 93.3213 88.3796 93.3093 88.7801C93.2973 89.1805 93.2062 89.5746 93.0413 89.9397C92.8764 90.3048 92.6409 90.6337 92.3484 90.9074C92.0559 91.1812 91.7122 91.3943 91.337 91.5347L64.1434 101.689C63.8039 101.816 63.4443 101.882 63.0818 101.882Z" fill="#2F2E41"/>
<path d="M64.2981 45.4255L86.1123 74.5967L71.3516 45.7317C71.2297 45.3949 71.0426 45.0854 70.8011 44.8209C70.5595 44.5564 70.2683 44.3421 69.9439 44.1902C69.6195 44.0383 69.2684 43.9518 68.9106 43.9356C68.5527 43.9195 68.1952 43.974 67.8585 44.096L64.2981 45.4255Z" fill="#E6E6E6"/>
<path d="M98.8382 67.5794L59.8889 65.0705C59.2749 65.0309 58.6748 64.8708 58.1227 64.5994C57.5706 64.3279 57.0775 63.9503 56.6713 63.4883C56.2651 63.0262 55.954 62.4886 55.7556 61.9063C55.5572 61.324 55.4754 60.7082 55.5149 60.0943C55.5545 59.4804 55.7146 58.8802 55.986 58.3282C56.2575 57.7761 56.6351 57.2829 57.0971 56.8767C57.5592 56.4706 58.0968 56.1594 58.6791 55.961C59.2614 55.7626 59.8772 55.6808 60.4911 55.7204L99.4404 58.2291C99.728 58.2476 100.009 58.3225 100.268 58.4497C100.526 58.5768 100.757 58.7536 100.947 58.97C101.138 59.1864 101.283 59.4381 101.376 59.7109C101.469 59.9836 101.507 60.2719 101.489 60.5594L101.169 65.531C101.131 66.1116 100.865 66.6536 100.428 67.0378C99.9906 67.4219 99.4189 67.6167 98.8382 67.5794Z" fill="#27AE60"/>
<path d="M88.4303 69.1879C88.3789 69.1879 88.3273 69.1862 88.2756 69.1829H88.2755L56.2925 67.1228C55.9829 67.1029 55.6802 67.0222 55.4018 66.8853C55.1233 66.7484 54.8746 66.558 54.6697 66.325C54.4649 66.0919 54.308 65.8208 54.2079 65.5271C54.1078 65.2334 54.0666 64.9229 54.0866 64.6132L54.6335 56.1216C54.6534 55.812 54.7342 55.5093 54.8711 55.2308C55.008 54.9524 55.1985 54.7037 55.4315 54.4989C55.6646 54.294 55.9357 54.1371 56.2294 54.0371C56.5232 53.937 56.8337 53.8958 57.1433 53.9158L89.1263 55.9757C89.7513 56.0167 90.3346 56.3039 90.7482 56.7744C91.1617 57.2449 91.3717 57.8602 91.3322 58.4853L90.7853 66.9771C90.7552 67.4321 90.5944 67.8688 90.3222 68.2346C90.05 68.6005 89.678 68.88 89.2509 69.0397C88.9884 69.1379 88.7105 69.1881 88.4303 69.1879Z" fill="#2F2E41"/>
<path d="M51.5086 15.8438C53.7732 13.8962 56.883 15.6385 59.48 15.3335C61.9646 15.0417 63.9265 12.8129 64.4277 10.4452C65.0124 7.68289 63.5786 4.91542 61.4653 3.19315C59.1507 1.30683 56.081 0.765319 53.172 1.1143C49.838 1.51427 46.7889 3.06838 44.053 4.94815C41.4121 6.70638 38.9836 8.76427 36.8158 11.0808C34.8746 13.2247 33.23 15.7801 32.7048 18.665C32.2275 21.2868 32.5919 24.192 34.1418 26.413C34.9637 27.5514 36.065 28.4587 37.3396 29.0476C38.6686 29.7001 40.0863 30.1667 41.3738 30.9045C43.3206 32.0202 45.2127 34.3335 44.6029 36.7408C44.4722 37.2666 44.2142 37.7523 43.8516 38.155C43.4159 38.6386 42.6302 37.9995 43.0669 37.5147C43.8341 36.6631 43.8039 35.5273 43.395 34.5106C42.9089 33.3649 42.048 32.4182 40.9535 31.8258C39.6058 31.0552 38.1178 30.5796 36.7364 29.8777C35.4143 29.2365 34.2666 28.2854 33.391 27.1053C31.7377 24.8077 31.2432 21.8176 31.6182 19.0515C32.0239 16.0581 33.5619 13.3381 35.4898 11.0586C37.588 8.57798 40.1653 6.47817 42.7982 4.59178C45.6233 2.56766 48.7446 0.856411 52.1984 0.237479C55.1924 -0.299038 58.4376 0.0312758 61.0556 1.66284C63.4994 3.18581 65.3734 5.80561 65.5598 8.73298C65.6267 10.0649 65.3375 11.3906 64.7219 12.5737C64.1064 13.7568 63.1867 14.7544 62.0575 15.464C60.8989 16.1574 59.5518 16.4694 58.2063 16.3562C56.7679 16.2641 55.3281 15.8237 53.8805 15.946C53.2254 15.9857 52.6012 16.2379 52.1023 16.6644C51.6076 17.0899 51.0179 16.2659 51.5086 15.8438V15.8438Z" fill="#2F2E41"/>
<path d="M249.598 201.564H0.40195C0.295563 201.564 0.193642 201.521 0.118524 201.446C0.043406 201.371 0.0012207 201.269 0.0012207 201.162C0.0012207 201.056 0.043406 200.954 0.118524 200.879C0.193642 200.803 0.295563 200.761 0.40195 200.76H249.598C249.705 200.76 249.807 200.803 249.882 200.878C249.958 200.954 250 201.056 250 201.162C250 201.269 249.958 201.371 249.882 201.447C249.807 201.522 249.705 201.564 249.598 201.564Z" fill="#3F3D56"/>
</g>
<defs>
<clipPath id="clip0">
<rect width="250" height="201.564" fill="white"/>
</clipPath>
</defs>
</svg>
