<svg width="149" height="15" viewBox="0 0 149 15" fill="none" xmlns="http://www.w3.org/2000/svg">
<path d="M8.36719 11.3633H3.74414L2.86523 14H0.0615234L4.8252 1.20312H7.26855L12.0586 14H9.25488L8.36719 11.3633ZM4.45605 9.22754H7.65527L6.04688 4.4375L4.45605 9.22754ZM21.0586 10.5459L22.3066 4.49023H24.7588L22.333 14H20.2061L18.4043 8.01465L16.6025 14H14.4844L12.0586 4.49023H14.5107L15.75 10.5371L17.4902 4.49023H19.3271L21.0586 10.5459ZM31.5352 14C31.418 13.7715 31.333 13.4873 31.2803 13.1475C30.665 13.833 29.8652 14.1758 28.8809 14.1758C27.9492 14.1758 27.1758 13.9062 26.5605 13.3672C25.9512 12.8281 25.6465 12.1484 25.6465 11.3281C25.6465 10.3203 26.0186 9.54688 26.7627 9.00781C27.5127 8.46875 28.5938 8.19629 30.0059 8.19043H31.1748V7.64551C31.1748 7.20605 31.0605 6.85449 30.832 6.59082C30.6094 6.32715 30.2549 6.19531 29.7686 6.19531C29.3408 6.19531 29.0039 6.29785 28.7578 6.50293C28.5176 6.70801 28.3975 6.98926 28.3975 7.34668H25.8574C25.8574 6.7959 26.0273 6.28613 26.3672 5.81738C26.707 5.34863 27.1875 4.98242 27.8086 4.71875C28.4297 4.44922 29.127 4.31445 29.9004 4.31445C31.0723 4.31445 32.001 4.61035 32.6865 5.20215C33.3779 5.78809 33.7236 6.61426 33.7236 7.68066V11.8027C33.7295 12.7051 33.8555 13.3877 34.1016 13.8506V14H31.5352ZM29.4346 12.2334C29.8096 12.2334 30.1553 12.1514 30.4717 11.9873C30.7881 11.8174 31.0225 11.5918 31.1748 11.3105V9.67578H30.2256C28.9541 9.67578 28.2773 10.1152 28.1953 10.9941L28.1865 11.1436C28.1865 11.46 28.2979 11.7207 28.5205 11.9258C28.7432 12.1309 29.0479 12.2334 29.4346 12.2334ZM38.3555 14H35.8066V0.5H38.3555V14ZM51.7412 10.6426C51.7412 10.1445 51.5654 9.76367 51.2139 9.5C50.8623 9.23047 50.2295 8.94922 49.3154 8.65625C48.4014 8.35742 47.6777 8.06445 47.1445 7.77734C45.6914 6.99219 44.9648 5.93457 44.9648 4.60449C44.9648 3.91309 45.1582 3.29785 45.5449 2.75879C45.9375 2.21387 46.4971 1.78906 47.2236 1.48438C47.9561 1.17969 48.7764 1.02734 49.6846 1.02734C50.5986 1.02734 51.4131 1.19434 52.1279 1.52832C52.8428 1.85645 53.3965 2.32227 53.7891 2.92578C54.1875 3.5293 54.3867 4.21484 54.3867 4.98242H51.75C51.75 4.39648 51.5654 3.94238 51.1963 3.62012C50.8271 3.29199 50.3086 3.12793 49.6406 3.12793C48.9961 3.12793 48.4951 3.26563 48.1377 3.54102C47.7803 3.81055 47.6016 4.16797 47.6016 4.61328C47.6016 5.0293 47.8096 5.37793 48.2256 5.65918C48.6475 5.94043 49.2656 6.2041 50.0801 6.4502C51.5801 6.90137 52.6729 7.46094 53.3584 8.12891C54.0439 8.79688 54.3867 9.62891 54.3867 10.625C54.3867 11.7324 53.9678 12.6025 53.1299 13.2354C52.292 13.8623 51.1641 14.1758 49.7461 14.1758C48.7617 14.1758 47.8652 13.9971 47.0566 13.6396C46.248 13.2764 45.6299 12.7812 45.2021 12.1543C44.7803 11.5273 44.5693 10.8008 44.5693 9.97461H47.2148C47.2148 11.3867 48.0586 12.0928 49.7461 12.0928C50.373 12.0928 50.8623 11.9668 51.2139 11.7148C51.5654 11.457 51.7412 11.0996 51.7412 10.6426ZM61.5234 14C61.4062 13.7715 61.3213 13.4873 61.2686 13.1475C60.6533 13.833 59.8535 14.1758 58.8691 14.1758C57.9375 14.1758 57.1641 13.9062 56.5488 13.3672C55.9395 12.8281 55.6348 12.1484 55.6348 11.3281C55.6348 10.3203 56.0068 9.54688 56.751 9.00781C57.501 8.46875 58.582 8.19629 59.9941 8.19043H61.1631V7.64551C61.1631 7.20605 61.0488 6.85449 60.8203 6.59082C60.5977 6.32715 60.2432 6.19531 59.7568 6.19531C59.3291 6.19531 58.9922 6.29785 58.7461 6.50293C58.5059 6.70801 58.3857 6.98926 58.3857 7.34668H55.8457C55.8457 6.7959 56.0156 6.28613 56.3555 5.81738C56.6953 5.34863 57.1758 4.98242 57.7969 4.71875C58.418 4.44922 59.1152 4.31445 59.8887 4.31445C61.0605 4.31445 61.9893 4.61035 62.6748 5.20215C63.3662 5.78809 63.7119 6.61426 63.7119 7.68066V11.8027C63.7178 12.7051 63.8438 13.3877 64.0898 13.8506V14H61.5234ZM59.4229 12.2334C59.7979 12.2334 60.1436 12.1514 60.46 11.9873C60.7764 11.8174 61.0107 11.5918 61.1631 11.3105V9.67578H60.2139C58.9424 9.67578 58.2656 10.1152 58.1836 10.9941L58.1748 11.1436C58.1748 11.46 58.2861 11.7207 58.5088 11.9258C58.7314 12.1309 59.0361 12.2334 59.4229 12.2334ZM68.3438 14H65.7949V0.5H68.3438V14ZM70.0488 9.1748C70.0488 7.69238 70.3799 6.51172 71.042 5.63281C71.71 4.75391 72.6211 4.31445 73.7754 4.31445C74.7012 4.31445 75.4658 4.66016 76.0693 5.35156V0.5H78.6182V14H76.3242L76.2012 12.9893C75.5684 13.7803 74.7539 14.1758 73.7578 14.1758C72.6387 14.1758 71.7393 13.7363 71.0596 12.8574C70.3857 11.9727 70.0488 10.7451 70.0488 9.1748ZM72.5889 9.35938C72.5889 10.25 72.7441 10.9326 73.0547 11.4072C73.3652 11.8818 73.8164 12.1191 74.4082 12.1191C75.1934 12.1191 75.7471 11.7881 76.0693 11.126V7.37305C75.7529 6.71094 75.2051 6.37988 74.4258 6.37988C73.2012 6.37988 72.5889 7.37305 72.5889 9.35938ZM80.1914 9.15723C80.1914 8.21387 80.373 7.37305 80.7363 6.63477C81.0996 5.89648 81.6211 5.3252 82.3008 4.9209C82.9863 4.5166 83.7803 4.31445 84.6826 4.31445C85.9658 4.31445 87.0117 4.70703 87.8203 5.49219C88.6348 6.27734 89.0889 7.34375 89.1826 8.69141L89.2002 9.3418C89.2002 10.8008 88.793 11.9727 87.9785 12.8574C87.1641 13.7363 86.0713 14.1758 84.7002 14.1758C83.3291 14.1758 82.2334 13.7363 81.4131 12.8574C80.5986 11.9785 80.1914 10.7832 80.1914 9.27148V9.15723ZM82.7314 9.3418C82.7314 10.2441 82.9014 10.9355 83.2412 11.416C83.5811 11.8906 84.0674 12.1279 84.7002 12.1279C85.3154 12.1279 85.7959 11.8936 86.1416 11.4248C86.4873 10.9502 86.6602 10.1943 86.6602 9.15723C86.6602 8.27246 86.4873 7.58691 86.1416 7.10059C85.7959 6.61426 85.3096 6.37109 84.6826 6.37109C84.0615 6.37109 83.5811 6.61426 83.2412 7.10059C82.9014 7.58105 82.7314 8.32812 82.7314 9.3418ZM102.639 11.3633H98.0156L97.1367 14H94.333L99.0967 1.20312H101.54L106.33 14H103.526L102.639 11.3633ZM98.7275 9.22754H101.927L100.318 4.4375L98.7275 9.22754ZM109.274 4.49023L109.354 5.58887C110.033 4.73926 110.944 4.31445 112.087 4.31445C113.095 4.31445 113.845 4.61035 114.337 5.20215C114.829 5.79395 115.081 6.67871 115.093 7.85645V14H112.553V7.91797C112.553 7.37891 112.436 6.98926 112.201 6.74902C111.967 6.50293 111.577 6.37988 111.032 6.37988C110.317 6.37988 109.781 6.68457 109.424 7.29395V14H106.884V4.49023H109.274ZM116.631 9.1748C116.631 7.69238 116.962 6.51172 117.624 5.63281C118.292 4.75391 119.203 4.31445 120.357 4.31445C121.283 4.31445 122.048 4.66016 122.651 5.35156V0.5H125.2V14H122.906L122.783 12.9893C122.15 13.7803 121.336 14.1758 120.34 14.1758C119.221 14.1758 118.321 13.7363 117.642 12.8574C116.968 11.9727 116.631 10.7451 116.631 9.1748ZM119.171 9.35938C119.171 10.25 119.326 10.9326 119.637 11.4072C119.947 11.8818 120.398 12.1191 120.99 12.1191C121.775 12.1191 122.329 11.7881 122.651 11.126V7.37305C122.335 6.71094 121.787 6.37988 121.008 6.37988C119.783 6.37988 119.171 7.37305 119.171 9.35938ZM132.68 14C132.562 13.7715 132.478 13.4873 132.425 13.1475C131.81 13.833 131.01 14.1758 130.025 14.1758C129.094 14.1758 128.32 13.9062 127.705 13.3672C127.096 12.8281 126.791 12.1484 126.791 11.3281C126.791 10.3203 127.163 9.54688 127.907 9.00781C128.657 8.46875 129.738 8.19629 131.15 8.19043H132.319V7.64551C132.319 7.20605 132.205 6.85449 131.977 6.59082C131.754 6.32715 131.399 6.19531 130.913 6.19531C130.485 6.19531 130.148 6.29785 129.902 6.50293C129.662 6.70801 129.542 6.98926 129.542 7.34668H127.002C127.002 6.7959 127.172 6.28613 127.512 5.81738C127.852 5.34863 128.332 4.98242 128.953 4.71875C129.574 4.44922 130.271 4.31445 131.045 4.31445C132.217 4.31445 133.146 4.61035 133.831 5.20215C134.522 5.78809 134.868 6.61426 134.868 7.68066V11.8027C134.874 12.7051 135 13.3877 135.246 13.8506V14H132.68ZM130.579 12.2334C130.954 12.2334 131.3 12.1514 131.616 11.9873C131.933 11.8174 132.167 11.5918 132.319 11.3105V9.67578H131.37C130.099 9.67578 129.422 10.1152 129.34 10.9941L129.331 11.1436C129.331 11.46 129.442 11.7207 129.665 11.9258C129.888 12.1309 130.192 12.2334 130.579 12.2334ZM143.376 10.0713C143.376 9.25098 143.476 8.59766 143.675 8.11133C143.874 7.625 144.237 7.14746 144.765 6.67871C145.298 6.2041 145.652 5.82031 145.828 5.52734C146.004 5.22852 146.092 4.91504 146.092 4.58691C146.092 3.59668 145.635 3.10156 144.721 3.10156C144.287 3.10156 143.938 3.23633 143.675 3.50586C143.417 3.76953 143.282 4.13574 143.271 4.60449H140.722C140.733 3.48535 141.094 2.60938 141.803 1.97656C142.518 1.34375 143.49 1.02734 144.721 1.02734C145.963 1.02734 146.927 1.3291 147.612 1.93262C148.298 2.53027 148.641 3.37695 148.641 4.47266C148.641 4.9707 148.529 5.44238 148.307 5.8877C148.084 6.32715 147.694 6.81641 147.138 7.35547L146.426 8.03223C145.98 8.45996 145.726 8.96094 145.661 9.53516L145.626 10.0713H143.376ZM143.121 12.7695C143.121 12.377 143.253 12.0547 143.517 11.8027C143.786 11.5449 144.129 11.416 144.545 11.416C144.961 11.416 145.301 11.5449 145.564 11.8027C145.834 12.0547 145.969 12.377 145.969 12.7695C145.969 13.1562 145.837 13.4756 145.573 13.7275C145.315 13.9795 144.973 14.1055 144.545 14.1055C144.117 14.1055 143.771 13.9795 143.508 13.7275C143.25 13.4756 143.121 13.1562 143.121 12.7695Z" fill="#27AE60"/>
</svg>
